<?xml version="1.0" encoding="utf-8"?>
<!-- Generator: Adobe Illustrator 20.1.0, SVG Export Plug-In . SVG Version: 6.00 Build 0)  -->
<svg xmlns="http://www.w3.org/2000/svg" width="146.285" height="56.885" viewBox="0 0 146.285 56.885">
<style type="text/css">
	.st0{fill:#20295C;}
	.st1{fill:#E6232D;}
	.st2{fill:#1DACE0;}
	.st3{fill:#693E97;}
	.st4{fill:#F9BD19;}
</style>
<g>
	<g>
		<g>
			<path class="st0" d="M48,21h6c5.7,0,9.6,3.9,9.6,9v0.1c0,5.1-4,9-9.6,9h-6C48,39.2,48,21,48,21z M54,38c5.1,0,8.3-3.4,8.3-7.7
				v-0.1c0-4.3-3.2-7.8-8.3-7.8h-4.6V38C49.3,38,54,38,54,38z"/>
			<path class="st0" d="M66.8,35.3L66.8,35.3c0-2.8,2.3-4.4,5.8-4.4c1.8,0,3.1,0.3,4.4,0.6v-0.6c0-2.7-1.6-4-4.4-4
				c-1.6,0-2.9,0.4-4.1,1l-0.4-1.1c1.5-0.7,2.8-1.1,4.6-1.1s3.2,0.5,4.1,1.5c0.9,0.9,1.4,2.1,1.4,3.7v8.3h-1.2V37
				c-0.9,1.3-2.5,2.5-5.1,2.5C69.5,39.5,66.8,38.1,66.8,35.3z M77,34.2v-1.5c-1.1-0.3-2.6-0.6-4.5-0.6c-2.8,0-4.4,1.2-4.4,3.1v0.1
				c0,1.9,1.8,3,3.9,3C74.8,38.3,77,36.6,77,34.2z"/>
			<path class="st0" d="M83.3,35.8v-8.6h-1.9V26h1.9v-4.2h1.3V26h4.6v1.2h-4.6v8.5c0,1.9,1.1,2.6,2.7,2.6c0.7,0,1.2-0.2,2-0.4v1.2
				c-0.7,0.3-1.3,0.4-2.2,0.4C85,39.4,83.3,38.3,83.3,35.8z"/>
			<path class="st0" d="M91.8,32.6L91.8,32.6c0-3.8,2.8-7,6.8-7c3.9,0,6.8,3.2,6.8,6.9v0.1c0,3.7-2.8,6.9-6.8,6.9
				S91.8,36.3,91.8,32.6z M103.9,32.6L103.9,32.6c0-3.3-2.4-5.8-5.4-5.8c-3.1,0-5.4,2.6-5.4,5.7v0.1c0,3.2,2.4,5.7,5.4,5.7
				C101.8,38.3,103.9,35.7,103.9,32.6z"/>
			<path class="st0" d="M108,37.6l0.8-1c1.5,1.1,3.1,1.7,4.7,1.7c1.8,0,3.2-0.9,3.2-2.5v-0.1c0-1.5-1.6-2.2-3.5-2.7
				c-2.2-0.6-4.6-1.3-4.6-3.6v-0.1c0-2.2,1.8-3.6,4.4-3.6c1.5,0,3.4,0.6,4.6,1.5l-0.7,1c-1.2-0.8-2.7-1.3-4-1.3c-1.8,0-3,0.9-3,2.3
				v0.1c0,1.5,1.8,2,3.7,2.6c2.2,0.6,4.4,1.4,4.4,3.7l0,0c0,2.3-2,3.9-4.6,3.9C111.7,39.4,109.4,38.7,108,37.6z"/>
		</g>
	</g>
	<g>
		<g>
			<path class="st0" d="M41.8,53.2h-5.9l-1.1,3.1h-3.5L36.9,41h4l5.7,15.3h-3.8L41.8,53.2z M36.9,50.1h3.7l-1.8-5.2L36.9,50.1z"/>
			<path class="st0" d="M48,56.4V40.7h3.2v5.9c0.3-0.3,0.6-0.6,1.2-0.9c0.5-0.3,1.2-0.4,1.9-0.4c0.8,0,1.5,0.2,2.1,0.4
				c0.6,0.3,1.1,0.7,1.5,1.2s0.8,1.1,0.9,1.8c0.2,0.7,0.3,1.5,0.3,2.2c0,0.9-0.1,1.5-0.3,2.2c-0.3,0.7-0.6,1.3-1,1.8s-1,0.9-1.6,1.2
				s-1.3,0.4-2.1,0.4c-0.7,0-1.4-0.2-1.9-0.4c-0.5-0.3-0.9-0.6-1.1-1v1.2L48,56.4L48,56.4z M56,51c0-0.4-0.1-0.9-0.2-1.2
				c-0.2-0.3-0.3-0.6-0.5-0.9c-0.3-0.3-0.5-0.3-0.8-0.5c-0.3-0.1-0.6-0.2-0.9-0.2s-0.6,0.1-0.9,0.2c-0.3,0.1-0.5,0.3-0.8,0.5
				s-0.4,0.5-0.5,0.9c-0.2,0.3-0.2,0.7-0.2,1.2s0.1,0.9,0.2,1.2c0.2,0.3,0.3,0.6,0.5,0.9c0.3,0.3,0.5,0.4,0.8,0.5s0.6,0.1,0.9,0.1
				s0.6-0.1,0.9-0.2s0.5-0.3,0.8-0.5c0.3-0.3,0.4-0.5,0.5-0.9S56,51.4,56,51z"/>
			<path class="st0" d="M61.2,42.4c0-0.3,0.1-0.5,0.2-0.8s0.3-0.4,0.4-0.6c0.2-0.2,0.3-0.3,0.6-0.4c0.3-0.1,0.5-0.2,0.8-0.2
				c0.5,0,1,0.2,1.4,0.6c0.3,0.3,0.6,0.9,0.6,1.4s-0.2,0.9-0.6,1.4c-0.3,0.3-0.9,0.6-1.4,0.6c-0.3,0-0.5-0.1-0.8-0.2
				c-0.3-0.1-0.4-0.3-0.6-0.4c-0.2-0.2-0.3-0.4-0.4-0.6C61.3,43,61.2,42.6,61.2,42.4z M61.5,56.4V45.6h3.3v10.7L61.5,56.4L61.5,56.4
				z"/>
			<path class="st0" d="M77.5,53.3c-0.2,0.4-0.3,0.9-0.6,1.3c-0.3,0.4-0.6,0.8-1,1.1s-0.9,0.5-1.5,0.8c-0.5,0.2-1.2,0.3-1.8,0.3
				c-0.8,0-1.5-0.1-2.2-0.4c-0.7-0.3-1.3-0.6-1.8-1.1s-0.9-1.1-1.2-1.8C67.1,52.8,67,52,67,51.1s0.2-1.6,0.4-2.3
				c0.3-0.7,0.7-1.3,1.2-1.8s1-0.9,1.7-1.1c0.7-0.3,1.3-0.4,2-0.4c1.6,0,3,0.5,4,1.5c0.9,0.9,1.5,2.3,1.5,4c0,0.3,0,0.4,0,0.7
				s0,0.3,0,0.3h-7.5c0,0.3,0.1,0.6,0.3,0.9c0.2,0.3,0.3,0.4,0.5,0.7c0.3,0.2,0.5,0.3,0.8,0.4c0.3,0.1,0.6,0.2,0.9,0.2
				c0.6,0,1-0.2,1.4-0.4c0.3-0.3,0.6-0.6,0.8-1L77.5,53.3z M74.5,49.7c0-0.2-0.1-0.4-0.2-0.6c-0.1-0.3-0.2-0.4-0.3-0.6
				c-0.2-0.2-0.4-0.3-0.7-0.4s-0.6-0.2-0.9-0.2s-0.7,0.1-0.9,0.2c-0.3,0.1-0.5,0.3-0.7,0.4c-0.2,0.2-0.3,0.3-0.4,0.6
				c-0.1,0.2-0.2,0.4-0.2,0.6H74.5z"/>
			<path class="st0" d="M86.7,48.9c-0.2,0-0.3-0.1-0.5-0.1s-0.3,0-0.5,0c-0.3,0-0.7,0.1-0.9,0.2c-0.3,0.1-0.6,0.3-0.8,0.5
				c-0.3,0.3-0.4,0.5-0.5,0.9c-0.2,0.3-0.2,0.9-0.2,1.4v4.6h-3.3V45.6h3.2v1.5c0.2-0.3,0.3-0.5,0.5-0.8c0.3-0.2,0.4-0.3,0.7-0.5
				c0.3-0.1,0.5-0.2,0.8-0.3s0.5-0.1,0.7-0.1c0.3,0,0.6,0,0.9,0.1L86.7,48.9L86.7,48.9z"/>
			<path class="st0" d="M92.7,45.6h2.1v2.8h-2.1v4c0,0.4,0.1,0.8,0.3,0.9c0.2,0.2,0.5,0.3,0.9,0.3c0.2,0,0.3,0,0.5,0
				s0.3-0.1,0.3-0.1v2.7c-0.1,0-0.3,0.1-0.5,0.2s-0.7,0.2-1.2,0.2c-1.1,0-2-0.3-2.7-0.9c-0.6-0.6-0.9-1.5-0.9-2.5v-4.6h-1.9v-2.8
				h0.6c0.6,0,0.9-0.2,1.3-0.5c0.3-0.3,0.4-0.8,0.4-1.3v-1.4h2.9L92.7,45.6L92.7,45.6z"/>
			<path class="st0" d="M102,45.3c0.8,0,1.5,0.2,2.2,0.4c0.7,0.3,1.3,0.7,1.8,1.2s0.9,1.1,1.2,1.8c0.3,0.7,0.4,1.5,0.4,2.3
				c0,0.9-0.2,1.6-0.4,2.3c-0.3,0.7-0.7,1.3-1.2,1.8s-1.1,0.9-1.8,1.2c-0.7,0.3-1.5,0.4-2.2,0.4s-1.5-0.2-2.2-0.4
				c-0.7-0.3-1.3-0.7-1.8-1.2s-0.9-1.1-1.2-1.8c-0.3-0.7-0.4-1.5-0.4-2.3s0.2-1.6,0.4-2.3c0.3-0.7,0.7-1.3,1.2-1.8s1.1-0.9,1.8-1.2
				C100.5,45.5,101.2,45.3,102,45.3z M102,53.6c0.3,0,0.6-0.1,0.9-0.2s0.5-0.3,0.8-0.5c0.3-0.3,0.4-0.5,0.5-0.9
				c0.2-0.3,0.2-0.7,0.2-1.2c0-0.4-0.1-0.9-0.2-1.2c-0.2-0.3-0.3-0.6-0.5-0.9c-0.3-0.3-0.5-0.3-0.8-0.5c-0.3-0.1-0.6-0.2-0.9-0.2
				s-0.6,0.1-0.9,0.2c-0.3,0.1-0.5,0.3-0.8,0.5s-0.4,0.5-0.5,0.9c-0.2,0.3-0.2,0.7-0.2,1.2s0.1,0.9,0.2,1.2c0.2,0.3,0.3,0.6,0.5,0.9
				c0.3,0.3,0.5,0.4,0.8,0.5C101.4,53.6,101.8,53.6,102,53.6z"/>
			<path class="st0" d="M112,52.8c0,0.3,0.2,0.7,0.4,1c0.3,0.3,0.7,0.4,1.2,0.4c0.4,0,0.7-0.1,0.9-0.3c0.2-0.2,0.3-0.4,0.3-0.7
				c0-0.2-0.1-0.3-0.3-0.5c-0.2-0.2-0.4-0.3-0.9-0.3l-1.2-0.3c-0.6-0.2-1-0.3-1.5-0.5c-0.4-0.2-0.8-0.4-1-0.8
				c-0.3-0.3-0.4-0.6-0.6-0.9c-0.1-0.3-0.2-0.7-0.2-1.1c0-0.5,0.1-0.9,0.3-1.4c0.2-0.4,0.5-0.8,0.9-1.1c0.3-0.3,0.8-0.6,1.3-0.8
				s1-0.3,1.6-0.3c0.8,0,1.5,0.1,2,0.3s0.9,0.5,1.3,0.8c0.3,0.3,0.6,0.7,0.8,1c0.2,0.3,0.3,0.7,0.3,1l-2.8,0.5
				c0-0.3-0.2-0.7-0.4-0.9c-0.3-0.3-0.6-0.4-1.1-0.4c-0.3,0-0.6,0.1-0.9,0.3s-0.3,0.4-0.3,0.7s0.1,0.4,0.3,0.5
				c0.2,0.1,0.3,0.2,0.6,0.3l1.5,0.3c1.1,0.3,2,0.7,2.5,1.3s0.8,1.3,0.8,2.1c0,0.4-0.1,0.9-0.3,1.4c-0.2,0.4-0.4,0.8-0.8,1.1
				c-0.3,0.3-0.8,0.6-1.4,0.9c-0.5,0.2-1.1,0.3-1.9,0.3c-0.9,0-1.5-0.1-2.2-0.3c-0.6-0.3-1-0.5-1.4-0.9c-0.3-0.3-0.6-0.7-0.8-1.1
				c-0.2-0.4-0.3-0.8-0.3-1L112,52.8z"/>
		</g>
	</g>
	<g>
		<g>
			<path class="st0" d="M57.9,13.3c-0.1,0-0.1,0-0.2,0c-0.5-0.1-0.9-0.5-1.1-1.1L54.6,2c-0.2-0.8,0.3-1.5,1.1-1.7s1.5,0.3,1.7,1.1
				l1.5,6.9L63,2.5c0.4-0.6,1.4-0.8,2-0.3s0.8,1.4,0.3,2l-6,8.3C59,13.1,58.5,13.3,57.9,13.3z"/>
		</g>
		<g>
			<path class="st1" d="M47.1,14.2c-0.3,0-0.5-0.2-0.7-0.3l-7.6-6.3c-0.7-0.4-0.8-1.3-0.3-1.9s1.4-0.7,2-0.2l5.2,4.3L45.4,3
				c0-0.8,0.5-1.4,1.3-1.5c0.8,0,1.4,0.5,1.5,1.3l0.5,9.9c0,0.5-0.3,1-0.8,1.3C47.6,14.2,47.4,14.2,47.1,14.2z"/>
		</g>
		<g>
			<path class="st2" d="M30.1,20.7c-0.7-0.1-1.2-0.7-1.1-1.4c0.1-0.7,0.7-1.3,1.4-1.2l6.4,0.4l-4-5c-0.4-0.6-0.3-1.4,0.2-1.8
				c0.6-0.4,1.4-0.3,1.8,0.2l5.9,7.3c0.3,0.4,0.3,0.9,0.2,1.4c-0.3,0.4-0.7,0.7-1.2,0.7L30.1,20.7L30.1,20.7z"/>
		</g>
		<g>
			<path class="st3" d="M30.7,38c-0.3,0-0.7-0.3-0.9-0.5c-0.3-0.6-0.3-1.5,0.3-1.9l5.2-4l-6.5-1.2c-0.7-0.2-1.2-0.9-1-1.5
				c0.2-0.7,0.9-1.2,1.5-1l9.5,1.8c0.5,0.1,0.9,0.5,1,1s-0.1,1-0.5,1.4l-7.7,5.8C31.4,37.9,31.1,38,30.7,38z"/>
		</g>
		<g>
			<path class="st4" d="M66.8,20c-0.4-0.1-0.8-0.3-1-0.6c-0.3-0.5-0.4-1.2-0.2-1.7l5.4-9.9c0.4-0.8,1.4-1,2.2-0.6
				c0.8,0.4,1,1.4,0.6,2.2l-3.7,6.8l7.5-1.8c0.9-0.2,1.7,0.3,1.9,1.1c0.2,0.9-0.3,1.7-1.1,1.9l-11,2.7C67.2,20.1,67,20.1,66.8,20z"
				/>
		</g>
	</g>
</g>
</svg>
